<?xml version="1.0"?><svg id="Layer_2" xmlns="http://www.w3.org/2000/svg" viewBox="0 0 1260.52 482.66"><g id="Layer_1-2"><path d="M897.23,246.76c2.81,4.36,6.4,8.73,10.65,8.9.65.03,1.31-.04,1.99-.23,2.93-.78,6.33-2.52,10.38-5.33l.52-.45c7.24-7.48,15.51-15.06,24.58-22.55,8.66-7.16,19.19-10.74,32.19-10.95l1.89-.03,1.02-1.59c2.62-4.07,4.58-8.52,5.86-13.24,1.62-6.15-.03-10.19-2.06-12.67-.44-2.32-2-5.41-6.91-7.32-4-1.49-8.23-.87-12.58,1.83-11.55.43-23.42,4.9-35.31,13.3-11.93,8.45-21.77,18.57-29.25,30.09-4.17,4.39-6.24,8.95-6.17,13.55.03,1.7.26,4.15,1.95,5.79.37.36.79.65,1.24.87Z"></path><path d="M1166.5,439.14c-2.77-6.85-10.14-13.84-29.27-8.28-75.15,14.79-138.58,21.43-188.53,19.73-49.81-1.64-86.7-8.8-109.97-21.19-22.53-11.98-29.91-26.18-27.92-44.27,4.43-40.11,58.42-67.09,58.42-67.09,9.92-6.39,8.25-14.21,6.34-18.35-3.18-6.82-8.92-10.39-16.46-10.24,0,0-4.51-.97-8.37.13-5.43,1.84-26.32,15.11-36.99,21.63-9.82,6-19.79,11.95-30.48,18.19-.51.3-1.04.59-1.55.89-1.26.63-2.48,1.24-3.78,1.88-20.78,10.19-42.83,19.6-65.56,27.98-22.52,8.33-44.94,15.56-66.63,21.51-16.5,4.52-30.3,6.62-41.2,6.28,4.35-4.11,9.55-10.08,15.69-18,9.78-12.61,18.79-26.75,26.78-42.05,7.97-15.32,13.51-30.82,16.45-46.07,3.04-15.97.42-29.45-7.81-40.08l-.33-.38c-4.27-4.14-7.89-6.52-11.11-7.3-2.83-.65-6.25-.94-9.88-.87-14.5-1.13-30.41,5.08-47.02,18.27-9.79,7.78-18.6,16.53-26.35,26.16.19-2.66-.45-5.03-1.34-6.98-.31-3.02-2.28-8.25-12.03-8.08-6.05.09-10.47.87-13.48,2.35-13.78,5.28-29.57,14.46-46.95,27.28-16.79,12.39-31.37,26.4-43.43,41.63-22.23,15.75-44.68,29.55-66.89,41.09-25.56,13.29-49.37,23.01-70.78,28.88-21.2,5.8-39.27,7.97-53.7,6.36-13.87-1.51-22.84-6.54-27.41-15.38l-.27-.52-.42-.41c-.64-.61-2.75-3.59-2.95-16.13l-.03-2.2c17.99-17.3,34.31-32.57,48.53-45.42,14.76-13.34,29.07-27.13,42.57-41.08,19.61-21.51,42.16-45.73,67.03-72.01,25.14-26.59,47.44-52.82,66.3-77.94,19.01-25.35,33.24-49.73,42.31-72.47,9.46-23.75,8.03-43.17-4.24-57.71l-.38-.45-.5-.3c-21.23-12.78-46.62-10.52-75.47,6.73-27.99,16.77-56.18,41.66-83.8,73.97-27.57,32.26-53.22,68.35-76.21,107.26-21.85,36.93-37.26,71.44-45.83,102.65-5.77-4.49-12.39-7.76-19.74-9.76-9.08-2.42-17.59-3.58-25.31-3.47-18.11.28-38.17,8.69-59.62,24.98-21.02,15.97-39.15,33.71-53.9,52.71-7.38,7.63-14.84,16.63-22.19,26.75-7.49,10.34-13.15,21.11-16.82,32.03-3.74,11.16-4.88,21.79-3.41,31.58,1.55,10.53,7.98,18.57,19.12,23.89l.75.36,3.57-.06c5.24,2.98,11.07,4.6,17.45,4.85,6.75.27,14.11-.99,22.04-3.78,14.93-5.22,30.74-12.8,47-22.52,16.06-9.61,32.03-20.3,47.45-31.77,13.28-9.89,25.16-18.5,35.4-25.64,6.29,23.13,19.85,37.5,40.35,42.75,21.14,5.41,45.93,4.4,73.66-3.01,27.44-7.3,56.12-19.17,85.26-35.28,9.24-5.1,18.27-10.41,27.13-15.86-1.92,17.52,5.04,32.83,20.75,45.5,10.66,9.03,27.73,14.07,50.74,14.98.07,0,.16,0,.22,0,22.79.9,50.57-9.52,82.58-30.97,17.63,3.24,39.26,2.49,64.31-2.22,25.54-4.77,51.39-11.82,76.82-20.96.86-.31,52.95-21.37,52.95-21.37,4.67-2.11,9.22-4.26,13.74-6.44-9.22,25.72-6.39,47.49,8.5,64.78,16.28,18.94,41.94,32.76,76.27,41.07,21.67,5.26,46.44,8.45,74.03,9.54,15.61.62,32.12.57,49.47-.16,47.81-1.98,99.15-9.1,152.35-21.11,13.05-2.07,20.54-5.51,23.57-10.83,1.19-2.1,2.23-5.57.38-10.2ZM560.93,353.37c2.19-13.88,7.16-27.7,14.8-41.08,7.66-13.45,17.01-25.59,27.78-36.09,9.59-9.33,18.14-13.91,25.43-13.62.37.01.74.04,1.11.08,3.54,1.06,2.85,8.36,2.11,12.67-1.63,9.53-5.74,20.89-12.2,33.77-6.54,12.96-14.71,26.12-24.29,39.11-8.96,12.13-17.99,22.47-26.87,30.77-7.17-5.4-9.74-13.81-7.87-25.61ZM547.02,297.91c-10.53,17.98-16.68,36.8-18.3,55.96-1.52,18.06,3.83,33.45,15.93,45.82-19.96,9.78-38.56,14.88-55.36,15.14-17.11.26-27.11-4.28-30.5-13.93-4.74-13.47-.27-29.25,13.28-46.9,14.62-10.09,29.75-21.26,44.97-33.22,12.38-9.72,23.1-18.52,32.07-26.34-.71,1.15-1.4,2.3-2.08,3.47ZM264.46,293.24c-15.92,15.93-30.04,29.33-42.09,39.96,4.64-22.78,15.39-50.4,32.04-82.29,19.16-36.71,41.44-72.42,66.23-106.15,24.7-33.64,50.47-62.14,76.6-84.71,21.79-18.84,39.96-28.05,54.17-27.49,2.3.09,4.49.44,6.58,1.04l.05.02c2.46.67,4.09,1.82,4.97,3.51,1.57,3.03,1.09,8.27-1.39,15.13-4.65,12.79-13.68,28.69-26.84,47.24-13.29,18.71-29.86,39.63-49.26,62.18-19.53,22.67-39.89,45.59-60.51,68.13-20.72,22.63-41.1,43.97-60.55,63.43ZM191.19,336.89l-3.12,24.61c-9.59,8.57-21.89,18.46-36.59,29.4-15.24,11.33-31.01,21.88-46.85,31.38-15.98,9.56-30.84,17.59-44.17,23.89-16.41,7.78-21.26,6.88-22.41,6.36l-3.24-3.14c-5.16-7.52-3.56-25.22,32.6-67.03,14.41-18.6,30.59-34.66,48.08-47.75,16.89-12.66,30.64-18.07,40.82-15.93l.38.08h.39c14.11-.2,23.04,2.53,26.51,8.18.42,8.74,4.73,10.1,7.41,9.97h.19Z"></path><path d="M1208.58,441.75c-6.45,2.92-19.52,8.58-27.66.98-8.14-7.61-3.86-19.82,9.65-25.71,18.52-8.1,30.45,14.65,18.01,24.73Z"></path><path d="M1227.56,406.7c5.76-4.11,17.5-12.17,26.95-6.27,9.45,5.9,7.6,18.71-4.52,27.08-16.62,11.51-32.69-8.52-22.43-20.81Z"></path></g></svg>